<?xml version="1.0" encoding="UTF-8"?>
<!DOCTYPE svg PUBLIC "-//W3C//DTD SVG 1.1//EN" "http://www.w3.org/Graphics/SVG/1.1/DTD/svg11.dtd">
<svg version="1.1" xmlns="http://www.w3.org/2000/svg" xmlns:xlink="http://www.w3.org/1999/xlink" x="0" y="0" width="1885" height="1077" viewBox="0, 0, 1885, 1077">
  <g id="Layer_1">
    <path d="M542.762,358.545 C583.061,355.982 636.479,370.351 667.95,395.751 C709.406,429.209 729.677,474.559 735.121,526.822 C741.771,590.67 730.486,658.062 689.122,708.956 C652.847,753.589 606.605,767.369 551.397,773.017 C503.204,774.04 455.913,762.986 418.315,731.549 C378.088,697.915 359.525,646.947 355.059,595.943 C349.583,533.42 361.354,468.422 402.674,419.391 C440.807,374.143 486.319,363.408 542.762,358.545 z M563.32,723.549 C588.939,723.883 615.009,709.502 632.85,692.078 C666.879,658.845 679.36,606.727 679.769,560.453 C680.149,517.519 667.952,473.223 637.049,442.07 C614.99,419.835 583.402,407.634 552.119,407.625 C543.917,407.622 535.491,407.953 527.351,408.946 C491.704,414.647 462.612,429.915 441.069,459.704 C412.233,499.579 405.698,558.74 413.395,606.297 C419.26,642.54 435.524,679.556 466.015,701.485 C493.54,721.28 530.058,727.41 563.32,723.549 z" fill="#6EAA1A"/>
    <path d="M802.633,369.607 C855.929,367.572 1000.643,364.682 1045.429,377.318 C1070.334,384.344 1092.369,399.01 1105.095,422.013 C1118.967,447.084 1120.344,482.561 1112.435,509.984 C1104.718,536.735 1086.791,554.517 1063.04,567.615 C1073.05,573.461 1082.767,579.53 1090.5,588.321 C1121.583,623.657 1106.003,679.73 1114.482,722.609 C1117.082,735.744 1131.17,748.82 1130.408,761.675 C1115.828,761.731 1076.866,767.714 1066.672,758.641 C1056.085,749.223 1058.016,728.589 1057.609,715.693 C1054.839,685.089 1062.371,636.147 1040.482,612.126 C1033.542,604.509 1024.14,599.889 1014.223,597.475 C973.114,587.468 904.339,596.167 859.106,593.927 C863.223,649.647 859.699,706.474 862.138,762.422 L803.926,762.449 C802.141,733.75 803.703,704.144 803.734,675.333 L803.826,482.35 C803.818,445.017 805.157,406.841 802.633,369.607 z M860.245,548.962 C909.001,546.709 1005.567,559.389 1043.252,529.546 C1058.332,510.701 1063.148,489.467 1060.301,465.27 Q1060.024,462.764 1059.501,460.298 Q1058.97,457.833 1058.201,455.433 Q1057.432,453.032 1056.424,450.721 Q1055.416,448.41 1054.177,446.211 Q1052.946,444.013 1051.492,441.949 Q1050.045,439.886 1048.399,437.978 Q1046.745,436.07 1044.914,434.337 Q1043.082,432.604 1041.09,431.063 C1008.822,406.091 903.108,416.621 859.483,415.888 C861.345,459.753 861.961,505.102 860.245,548.962 z" fill="#6EAA1A"/>
    <path d="M1495.483,35.577 C1517.572,34.609 1542.577,31.93 1564.235,36.819 C1571.852,38.537 1579.223,41.374 1585.493,46.093 C1605.366,61.056 1719.205,176.157 1730.977,194.965 C1734.677,200.888 1740.571,210.496 1738.701,217.799 C1733.039,239.903 1659.693,315.885 1639.597,327.618 C1639.42,328.21 1639.212,328.867 1638.896,329.397 C1634.503,336.714 1621.647,343.958 1613.637,346.781 C1607.159,349.064 1598.465,351.07 1592.018,347.797 C1571.267,337.27 1432.393,200.667 1426.761,182.843 C1419.79,160.815 1421.798,110.619 1432.47,90.163 C1444.372,67.356 1470.77,43.37 1495.483,35.577 z M1528.081,147.217 C1534.029,144.417 1539.715,140.352 1541.992,133.857 C1543.338,130.032 1542.615,126.65 1541.515,122.87 C1538.376,118.3 1532.775,113.677 1527.081,112.702 C1526.204,112.551 1525.358,112.497 1524.473,112.506 C1519.48,114.561 1513.909,116.535 1511.601,121.859 C1509.393,126.975 1509.162,133.853 1511.447,138.978 C1513.125,142.739 1515.941,145.817 1519.895,147.193 C1522.542,148.113 1525.473,148.275 1528.081,147.217 z" fill="#6EAA1A"/>
    <path d="M1673.604,370.216 C1691.192,367.056 1712.111,368.126 1729.907,369.539 C1732.115,371.355 1734.147,373.476 1735.555,375.982 C1744.826,392.547 1750.627,413.248 1757.159,431.141 L1794.921,535.491 L1846.023,676.521 C1855.071,701.357 1865.573,726.231 1873.129,751.516 C1874.229,755.205 1874.468,758.115 1873.391,761.872 C1853.54,761.688 1833.752,762.647 1813.925,763.549 C1814.232,762.6 1814.502,761.601 1814.578,760.602 C1815.025,754.893 1779.941,649.983 1774.586,643.826 C1757.513,645.084 1740.071,644.426 1722.944,644.447 C1688.86,643.937 1654.7,644.742 1620.6,644.472 C1620.854,645.624 1621.093,646.917 1621,648.107 C1619.885,662.491 1587.448,753.498 1579.492,760.877 C1564.243,766.255 1536.529,762.486 1519.964,762.19 C1520.603,761.595 1521.165,760.991 1521.772,760.371 C1532.605,749.335 1627.125,487.593 1640.458,452.062 C1650.283,425.875 1658.877,393.936 1673.604,370.216 z M1692.169,600.37 C1713.258,600.272 1735.247,598.84 1756.228,600.458 C1758.213,587.454 1710.703,460.142 1702.579,437.304 L1697.924,435.588 C1695.746,453.701 1646.036,589.607 1635.25,601.509 C1654.223,599.998 1673.165,600.242 1692.169,600.37 z" fill="#6EAA1A"/>
    <path d="M1310.56,360.587 C1346.652,357.366 1384.568,362.325 1417.567,377.782 C1442.264,389.353 1462.86,409.918 1472.17,435.775 C1477.079,449.394 1486.157,471.455 1479.764,485.078 C1463.099,486.832 1445.588,486.387 1428.815,486.851 C1429.038,485.766 1429.215,484.651 1429.23,483.54 C1429.477,467.906 1416.743,442.854 1406.118,432.001 C1387.414,412.9 1358.531,407.012 1332.672,406.804 C1311.545,406.633 1280.877,409.093 1265.328,424.685 C1253.287,436.761 1242.839,458.537 1243.115,475.568 C1244.162,540.804 1411.681,530.085 1464.322,580.885 C1484.003,599.876 1491.612,626.106 1491.92,652.815 C1492.243,681.5 1483.88,709.171 1463.399,729.933 C1429.592,764.199 1374.558,772.817 1328.633,773.255 C1295.757,772.44 1262.189,765.306 1234.114,747.509 C1206.539,730.025 1188.097,702.66 1181.164,670.847 C1179.302,662.319 1174.309,642.271 1178.933,635.073 C1192.805,630.798 1213.148,632.762 1227.405,635.143 C1235.299,643.02 1230.536,680.395 1261.142,705.145 C1286.601,725.731 1325.448,729.635 1357.131,726.065 C1381.759,723.289 1408.826,716.548 1424.837,696.312 C1434.547,684.034 1439.479,669.313 1437.609,653.635 C1435.724,637.89 1428.4,624.536 1415.612,615.081 C1368.887,580.53 1271.229,588.675 1219.303,547.229 C1202.192,533.568 1193.528,514.427 1191.174,492.951 C1188.05,464.523 1197.414,428.475 1215.741,405.966 C1239.022,377.366 1274.914,364.158 1310.56,360.587 z" fill="#6EAA1A"/>
    <path d="M45.544,369.031 C137.556,369.562 229.645,368.033 321.64,369.351 C321.861,385.845 321.797,402.147 320.739,418.612 C279.939,420.488 237.961,418.163 197.033,418.185 C165.091,418.202 131.566,421.255 99.92,417.938 C100.909,457.501 100.357,497.153 100.307,536.728 C136.264,533.729 173.65,535.893 209.782,535.709 C236.4,535.575 264.766,533.149 291.144,534.711 L292.836,538.143 Q292.874,561.576 293.235,585.007 C229.311,581.091 164.154,583.575 100.114,584.397 C101.578,643.845 98.302,703.685 101.364,763.061 C83.245,761.055 64.291,762.528 46.163,763.751 C44.363,727.932 45.829,691.344 45.846,655.451 C45.893,560.135 48.005,464.276 45.544,369.031 z" fill="#6EAA1A"/>
    <path d="M313.174,1073.523 C300.481,1068.807 288.457,1064.353 282.457,1051.276 C274.488,1033.905 275.592,909.811 282.642,891.179 C284.75,885.602 288.639,877.294 294.369,874.686 C304.659,869.993 322.22,869.224 333.534,868.924 C405.562,867.024 478.153,868.778 550.232,868.778 L976.73,868.77 L1386.66,868.832 C1458.013,868.778 1529.859,866.824 1601.158,868.755 C1610.683,869.016 1621.755,869.332 1630.641,872.893 C1635.334,874.77 1639.12,877.424 1642.359,881.34 C1660.409,900.103 1654.792,991.11 1654.177,1019.712 C1653.846,1034.867 1652.692,1050.729 1641.097,1061.684 C1631.449,1070.808 1619.877,1070.654 1609.429,1077 L1601.635,1077 C1589.348,1067.507 424.107,1075.039 313.174,1073.523 z" fill="#6EAA1A"/>
    <path d="M907.416,938.467 C911.717,938.283 916.472,937.929 920.68,938.998 C927.466,940.729 932.691,945.606 936.191,951.491 C940.084,958.046 940.938,965.685 938.946,973.016 C936.245,982.963 930.79,987.748 922.073,992.656 C918.911,992.702 915.703,992.671 912.563,992.233 C905.6,991.248 899.976,987.509 895.929,981.863 Q894.352,979.693 893.244,977.247 Q892.144,974.808 891.551,972.193 Q890.967,969.577 890.913,966.893 Q890.867,964.215 891.359,961.577 C893.267,951.007 898.768,944.399 907.416,938.467 z" fill="#6EAA1A"/>
    <path d="M1132.454,940.737 C1139.264,938.652 1145.511,936.89 1152.305,940.352 C1155.905,942.183 1157.998,944.36 1160.068,947.76 C1160.537,952.784 1160.176,953.284 1157.621,957.692 C1154.382,959.677 1151.674,961.292 1147.888,961.969 C1144.811,961.954 1141.572,961.4 1138.502,961.061 C1133.639,955.53 1136.232,948.137 1132.678,941.168 L1132.454,940.737 z" fill="#6EAA1A"/>
    <path d="M1279.061,947.145 L1282.701,948.237 C1286.04,952.991 1290.695,959.146 1291.718,964.985 C1292.541,969.631 1291.479,971.97 1288.902,975.524 L1279.562,975.532 C1276.769,976.27 1275.999,975.878 1273.353,974.993 C1271.437,967.516 1278.107,956.053 1279.008,947.714 L1279.061,947.145 z" fill="#6EAA1A"/>
    <path d="M1386.029,939.483 C1393.077,938.329 1400.048,937.683 1406.472,941.452 C1410.734,943.952 1411.712,945.368 1412.943,949.907 C1411.642,954.215 1409.988,956.007 1406.449,958.73 C1404.31,960.577 1402.087,962.361 1399.301,963.131 C1395.501,964.177 1394.37,963.685 1391.069,961.807 C1386.576,954.969 1386.653,947.376 1386.029,939.483 z" fill="#6EAA1A"/>
    <path d="M1331.926,939.475 C1338.935,938.552 1345.344,937.552 1351.83,941.098 C1356.708,943.76 1357.431,944.96 1358.978,949.968 C1357.801,954.138 1356.293,955.976 1352.984,958.738 C1351.599,960.461 1348.791,961.484 1346.737,962.223 C1342.482,963.746 1341.297,963.769 1337.258,961.969 C1332.434,955.076 1332.572,947.553 1331.926,939.475 z" fill="#6EAA1A"/>
    <path d="M555.654,938.237 Q559.966,938.221 564.276,938.36 C571.497,938.629 574.873,939.968 579.736,945.229 C581.419,951.184 580.497,954.876 578.721,960.538 Q577.546,960.792 576.358,960.977 C570.746,961.861 563.074,963.408 558.242,959.877 C554.196,954.153 555.499,945.022 555.654,938.237 z" fill="#6EAA1A"/>
    <path d="M313.174,1073.523 C424.107,1075.039 1589.348,1067.507 1601.635,1077 L315.197,1077 L313.174,1073.523 z" fill="#6EAA1A" fill-opacity="0.216"/>
    <text transform="matrix(1, 0, 0, 1, 966.194, 976.452)">
      <tspan x="-522.2" y="34.5" font-family="HelveticaNeue" font-size="100" fill="#FFFFFF">SPECIAL OFFERS APP</tspan>
    </text>
  </g>
</svg>
